# xmcd
#
# Track frame offsets:
#  150
#  13350
#  25275
#  37350
#  48523
#  55274
#  67008
#  78824
#  91798
#  102824
#  116176
#  128059
#  140272
#  153898
#  165223
#  174675
#
# Disc length: 2460 seconds
#
# Revision: 0
# Processed by: cddbd v1.5.2PL0 Copyright (c) Steve Scherf et al.
# Submitted via: AltoMP3_Maker 3.0
#
DISCID=d1099a10
DTITLE=Various Artist - Country Classics Vol7
DYEAR=1900
DGENRE=
TTITLE0=Ruby, Don't Take Your Love To Town
TTITLE1=I Almost Lost My Mind
TTITLE2=Following Me Around
TTITLE3=Love Me Baby
TTITLE4=Along The Santa Fe Trail
TTITLE5=Beaver Creek
TTITLE6=Nine Pound Hammer
TTITLE7=Shame On You
TTITLE8=Lovin' Country Style
TTITLE9=I Overlooked An Orchard
TTITLE10=Let Him Know
TTITLE11=I've Been Decieved
TTITLE12=Doesn't Anybody Know My Name
TTITLE13=Young Love
TTITLE14=Cuba Rhumba
TTITLE15=Cara Mia
EXTD=
EXTT0=
EXTT1=
EXTT2=
EXTT3=
EXTT4=
EXTT5=
EXTT6=
EXTT7=
EXTT8=
EXTT9=
EXTT10=
EXTT11=
EXTT12=
EXTT13=
EXTT14=
EXTT15=
PLAYORDER=
